<svg xmlns:xlink="http://www.w3.org/1999/xlink"  width=" 100%" height=" 100%" viewBox="0 0 24 24" fill="none" xmlns="http://www.w3.org/2000/svg">
<g clip-path="url(#clip0_20_3489)">
<path d="M13.533 12.0002C13.533 15.8037 10.5036 18.887 6.76652 18.887C3.02948 18.887 0 15.8037 0 12.0002C0 8.19664 3.02948 5.11328 6.76652 5.11328C10.5036 5.11328 13.533 8.19664 13.533 12.0002Z" fill="currentColor"></path>
<path d="M20.9515 11.9239C20.9515 15.4615 19.4329 18.3293 17.5595 18.3293C15.6861 18.3293 14.1674 15.4615 14.1674 11.9239C14.1674 8.38634 15.6861 5.51857 17.5595 5.51857C19.4329 5.51857 20.9515 8.38634 20.9515 11.9239Z" fill="currentColor"></path>
<path d="M24 11.9414C24 15.1092 23.4595 17.6771 22.7928 17.6771C22.1261 17.6771 21.5856 15.1092 21.5856 11.9414C21.5856 8.77368 22.1261 6.20572 22.7928 6.20572C23.4595 6.20572 24 8.77368 24 11.9414Z" fill="currentColor"></path>
</g>
<defs>
<clipPath id="clip0_20_3489">
<rect width="24" height="24" fill="currentColor"></rect>
</clipPath>
</defs>
</svg>