<svg xmlns:xlink="http://www.w3.org/1999/xlink"  width=" 100%" height=" 100%" viewBox="0 0 24 24" fill="none" xmlns="http://www.w3.org/2000/svg">
<path d="M4.62744 22.8339C6.60874 22.8339 8.2149 21.2277 8.2149 19.2464C8.2149 17.2651 6.60874 15.6589 4.62744 15.6589C2.64614 15.6589 1.03998 17.2651 1.03998 19.2464C1.03998 21.2277 2.64614 22.8339 4.62744 22.8339Z" fill="currentColor"></path>
<path fill-rule="evenodd" clip-rule="evenodd" d="M3.67084 8.66406C10.1317 8.66406 15.3693 13.9017 15.3693 20.3626H11.9027C11.9027 15.8162 8.21716 12.1307 3.67084 12.1307V8.66406Z" fill="currentColor"></path>
<path fill-rule="evenodd" clip-rule="evenodd" d="M3.67084 1.17017C14.2705 1.17017 22.8632 9.76286 22.8632 20.3625H19.3965C19.3965 11.6774 12.3559 4.63683 3.67084 4.63683V1.17017Z" fill="currentColor"></path>
</svg>